<svg version="1.2" baseProfile="tiny-ps" xmlns="http://www.w3.org/2000/svg" viewBox="0 0 30 28" width="30" height="28">
	<title>App Presentation</title>
	<style>
		tspan { white-space:pre }
		.s0 { fill: #2c3233 } 
	</style>
	<g id="App Presentation">
		<g id="Middle">
			<g id="Fully Sup...">
				<path id="Case Icon" class="s0" d="m29.77 11.93c0 0.02 0 0.05 0 0.06c0 0.02 0 0.04 0 0.07c0 0.17-0.02 0.32-0.05 0.45c-0.18 0.74-0.68 1.34-1.38 1.86v9.01c0 2.4-1.96 4.36-4.36 4.36h-17.95c-2.4 0-4.36-1.96-4.36-4.36v-9.01c-0.71-0.52-1.2-1.12-1.38-1.86c-0.03-0.14-0.05-0.29-0.05-0.46c0-0.03 0-0.05 0-0.07c0-0.02 0-0.04 0-0.07v-3.45c0-1.92 1.34-3.59 3.17-3.61h5.96v-2.66c0-1.08 0.88-1.96 1.96-1.96h7.37c1.08 0 1.96 0.88 1.96 1.96v2.66h5.96c1.83 0.02 3.17 1.69 3.18 3.61l0 3.45zm-19.18-9.72c0-0.4 0.33-0.73 0.73-0.73h7.37c0.4 0 0.73 0.33 0.73 0.73v2.66h-8.83l0-2.66zm16.52 12.9v8.27c0 1.72-1.41 3.12-3.13 3.13h-17.95c-1.72 0-3.12-1.41-3.13-3.13v-8.27c0.04 0.02 0.09 0.04 0.14 0.06c0.24 0.11 0.48 0.22 0.74 0.33c1.94 0.77 4.57 1.32 7.56 1.57v1.31c0 0.85 0.69 1.54 1.54 1.54h4.26c0.85 0 1.54-0.69 1.54-1.54v-1.31c1.33-0.11 2.58-0.28 3.73-0.51c1.45-0.28 2.74-0.64 3.82-1.06v0v0c0.26-0.11 0.51-0.22 0.75-0.33c0.04-0.02 0.09-0.04 0.13-0.06zm-14.54 0.81v-0.57c0-0.16 0.14-0.31 0.31-0.31h4.26c0.16 0 0.31 0.14 0.31 0.31v0.57v0v1.23v0v1.23c0 0.16-0.14 0.31-0.31 0.31h-4.26c-0.16 0-0.31-0.14-0.31-0.31v-1.23v0v-1.23v0zm14.04-9.82c0.99 0 1.94 1 1.94 2.38v3.43c0 0.02 0 0.05 0 0.08c0 0.04 0 0.07 0 0.09c0 0.04-0.01 0.1-0.02 0.17c-0.06 0.42-0.59 1-1.54 1.54c-0.07 0.04-0.14 0.08-0.21 0.11c-0.07 0.04-0.14 0.07-0.22 0.11c-0.09 0.04-0.18 0.09-0.28 0.13c-0.16 0.07-0.32 0.14-0.5 0.21c-1.31 0.52-3.03 0.95-4.99 1.24c-0.67 0.1-1.38 0.18-2.11 0.24v-0.48c0-0.85-0.69-1.54-1.54-1.54h-4.26c-0.85 0-1.53 0.69-1.54 1.54v0.48c-0.59-0.05-1.17-0.12-1.72-0.19c-2.13-0.29-3.98-0.73-5.38-1.29c-0.18-0.07-0.35-0.14-0.51-0.21c-0.09-0.04-0.17-0.08-0.25-0.12c-0.09-0.04-0.17-0.08-0.25-0.12c-0.07-0.04-0.13-0.07-0.19-0.1c-0.95-0.54-1.48-1.12-1.54-1.54c-0.01-0.07-0.02-0.12-0.02-0.16c0-0.01 0-0.03 0.01-0.07l0-0.03l0-0.03c0-0.03-0.01-0.05-0.01-0.06l0-3.42c0-1.38 0.96-2.38 1.94-2.38h23.2z" />
			</g>
		</g>
	</g>
</svg>