<svg version="1.2" baseProfile="tiny-ps" xmlns="http://www.w3.org/2000/svg" viewBox="0 0 26 26" width="26" height="26">
	<title>App Presentation</title>
	<style>
		tspan { white-space:pre }
		.s0 { fill: #2c3233 } 
	</style>
	<g id="App Presentation">
		<g id="Middle">
			<g id="Flat And M...">
				<path id="Pencil Icon" class="s0" d="m9.11 17.81l-0.92-0.92l13.21-13.21l-2.19-2.19c-0.13-0.13-0.3-0.2-0.48-0.2c-0.18 0-0.35 0.07-0.48 0.2l-13.93 13.93l-0.92-0.92l13.93-13.93c0.39-0.39 0.9-0.58 1.4-0.58c0.5 0 1.01 0.19 1.4 0.58l5.3 5.3c0.38 0.38 0.58 0.89 0.58 1.4c0 0.5-0.19 1.01-0.58 1.4l-13.93 13.93l-0.92-0.92l13.93-13.93h0c0.13-0.13 0.2-0.3 0.2-0.48c0-0.18-0.07-0.35-0.2-0.48l-2.19-2.19l-13.21 13.21zm-6.51 0.26c-0.27-0.26-0.59-0.48-1.01-0.48c-0.33-0.01-0.67 0.18-0.84 0.43c-0.18 0.25-0.26 0.53-0.28 0.83l-0.45 5.25v0c-0.01 0.05-0.01 0.11-0.01 0.17c0 0.47 0.18 0.92 0.5 1.23c0.31 0.32 0.76 0.5 1.23 0.5h0c0.05 0 0.1 0 0.15-0.01l5.27-0.45c0.3-0.03 0.58-0.1 0.83-0.28c0.25-0.17 0.44-0.51 0.43-0.84c-0.01-0.42-0.22-0.74-0.48-1.01l-5.33-5.33zm-0.81 6.63c-0.01 0-0.03 0-0.05 0c-0.29-0.02-0.41-0.14-0.43-0.43c0 0 0-0.02 0-0.05h0.01l0.44-5.16l5.2 5.2l-5.16 0.44z" />
			</g>
		</g>
	</g>
</svg>