<svg version="1.2" baseProfile="tiny-ps" xmlns="http://www.w3.org/2000/svg" viewBox="0 0 16 30" width="16" height="30">
	<title>App Presentation</title>
	<style>
		tspan { white-space:pre }
		.s0 { fill: #2c3233 } 
	</style>
	<g id="App Presentation">
		<g id="Middle">
			<g id="Free Of...">
				<path id="Tag Icon" class="s0" d="m15.49 16.36v11c0 1.51-1.23 2.74-2.74 2.74h-9.51c-1.51 0-2.74-1.23-2.74-2.74v-11h0.02c0.25-4 3.18-7.24 6.94-7.54v-0.25c0.03-0.18-0.26-0.64-0.43-0.7l-3.52-1.72c-0.72-0.39-1.16-1.1-1.19-1.92v-1.34c0-0.88 0.71-1.59 1.59-1.59h5.54c0.19-0.8 0.91-1.4 1.77-1.4l1.41 0c1.01 0 1.83 0.82 1.83 1.83v1.41c0 1.01-0.82 1.83-1.83 1.83h-1.41c-1.01 0-1.83-0.82-1.83-1.83v-0.48h-5.49c-0.12 0-0.23 0.11-0.23 0.23v1.34c-0.03 0.18 0.26 0.65 0.43 0.7l3.52 1.73c0.72 0.39 1.16 1.1 1.2 1.92v0.27c3.62 0.43 6.41 3.62 6.65 7.51h0.02zm-4.74-14.63c0-0.25 0.22-0.47 0.47-0.47h1.41c0.25 0 0.47 0.21 0.47 0.47v1.41c0 0.25-0.22 0.47-0.47 0.47l-1.41 0c-0.25 0-0.47-0.22-0.47-0.47v-1.41zm-2 12.85c0.25 0 0.46 0.21 0.46 0.47v1.41c0 0.25-0.21 0.46-0.46 0.47h-1.41c-0.25 0-0.47-0.22-0.47-0.47v-1.41c0-0.25 0.21-0.47 0.47-0.47h1.41zm5.37 3.14v9.63c0 0.75-0.62 1.37-1.37 1.37h-9.51c-0.75 0-1.37-0.62-1.37-1.37v-9.63h0.01v-0.68c0-0.11-0.01-0.15-0.01-0.15c0-3.56 2.5-6.4 5.59-6.7v3.03h-0.12c-1.01 0-1.83 0.82-1.83 1.83v1.41c0 1.01 0.82 1.83 1.83 1.83l1.41 0c1.01 0 1.83-0.82 1.83-1.83v-1.41c0-0.99-0.78-1.78-1.76-1.82v-3c2.96 0.45 5.3 3.22 5.3 6.66h0c0 0-0.01 0.04-0.01 0.15v0.68h0.01z" />
			</g>
		</g>
	</g>
</svg>